<?xml version="1.0" standalone="no"?><!DOCTYPE svg PUBLIC "-//W3C//DTD SVG 20010904//EN" "http://www.w3.org/TR/2001/REC-SVG-20010904/DTD/svg10.dtd"><svg version="1.0" xmlns="http://www.w3.org/2000/svg" width="77.000000pt" height="77.000000pt" viewBox="0 0 77.000000 77.000000" preserveAspectRatio="xMidYMid meet"><g transform="translate(0.000000,77.000000) scale(0.100000,-0.100000)" fill="#000000" stroke="none"><path d="M296 760 c-59 -15 -153 -69 -186 -107 -40 -45 -89 -143 -99 -198 -12 -62 13 -208 44 -260 34 -59 117 -132 183 -163 48 -22 72 -26 147 -27 80 0 97 3 155 31 82 39 124 75 167 141 63 99 79 218 42 325 -38 113 -97 179 -206 230 -69 33 -178 45 -247 28z m64 -210 c25 -25 25 -45 -1 -71 -27 -27 -75 -15 -79 21 -5 35 1 51 23 60 32 13 35 12 57 -10z m250 -200 c25 -25 25 -45 -1 -71 -27 -27 -75 -15 -79 21 -5 35 1 51 23 60 32 13 35 12 57 -10z m-300 -50 c25 -25 25 -45 -1 -71 -27 -27 -75 -15 -79 21 -5 35 1 51 23 60 32 13 35 12 57 -10z"/></g></svg>