<?xml version="1.0" standalone="no"?><!DOCTYPE svg PUBLIC "-//W3C//DTD SVG 20010904//EN" "http://www.w3.org/TR/2001/REC-SVG-20010904/DTD/svg10.dtd"><svg version="1.0" xmlns="http://www.w3.org/2000/svg" width="80.000000pt" height="77.000000pt" viewBox="0 0 80.000000 77.000000" preserveAspectRatio="xMidYMid meet"><g transform="translate(0.000000,77.000000) scale(0.100000,-0.100000)" fill="#000000" stroke="none"><path d="M290 754 c-139 -38 -253 -159 -279 -299 -10 -54 9 -186 35 -241 25 -53 119 -145 175 -172 153 -74 353 -40 465 80 52 56 100 151 109 221 7 44 6 47 -16 47 -70 0 -163 85 -175 162 -5 30 -11 38 -27 38 -64 0 -157 82 -172 151 -8 34 -28 36 -115 13z m70 -204 c25 -25 25 -45 -1 -71 -27 -27 -75 -15 -79 21 -5 35 1 51 23 60 32 13 35 12 57 -10z m250 -200 c25 -25 25 -45 -1 -71 -27 -27 -75 -15 -79 21 -5 35 1 51 23 60 32 13 35 12 57 -10z m-300 -50 c25 -25 25 -45 -1 -71 -27 -27 -75 -15 -79 21 -5 35 1 51 23 60 32 13 35 12 57 -10z"/></g></svg>